%FSLAX43Y43*%
%MOMM*%
G71*
G01*
G75*
G04 Layer_Physical_Order=1*
%ADD10R,1.800X1.600*%
%ADD11C,0.500*%
%ADD12C,1.000*%
%ADD13C,2.000*%
%ADD14R,3.000X3.000*%
%ADD15C,3.000*%
%ADD16R,1.500X1.500*%
%ADD17C,1.500*%
%ADD18C,1.270*%
D10*
X-47091Y7295D02*
D03*
Y4495D02*
D03*
X-45593Y11688D02*
D03*
Y14488D02*
D03*
X-40493Y11688D02*
D03*
Y14488D02*
D03*
X-35493Y11688D02*
D03*
Y14488D02*
D03*
X-30393Y11688D02*
D03*
Y14488D02*
D03*
D11*
X-36704Y6204D02*
X-31304D01*
X-40493Y9993D02*
Y11688D01*
Y9993D02*
X-36704Y6204D01*
X-31304D02*
X-29200Y4100D01*
Y1200D02*
X-28000Y0D01*
X-29200Y1200D02*
Y4100D01*
X-28900Y9700D02*
X-14800D01*
X-35493Y9707D02*
Y11688D01*
X-45593Y9807D02*
Y11688D01*
X-35500Y9700D02*
X-35493Y9707D01*
X-45700Y9700D02*
X-45593Y9807D01*
X-30400Y8900D02*
X-25400Y3900D01*
X-30400Y8900D02*
Y11700D01*
X-25400Y2540D02*
Y3900D01*
D12*
X-37900Y4600D02*
X-34800D01*
X-33020Y2820D01*
X-47100Y7400D02*
X-40700D01*
X-33020Y2540D02*
Y2820D01*
X-40700Y7400D02*
X-37900Y4600D01*
X-52088Y-1800D02*
X-18200D01*
X-30300Y14600D02*
Y21300D01*
X-30400Y14500D02*
X-30300Y14600D01*
X-35500Y14494D02*
X-35493Y14488D01*
X-35500Y14494D02*
Y21300D01*
X-40520Y14620D02*
X-40440Y14540D01*
X-40400Y14500D01*
X-40520Y14620D02*
Y21300D01*
X-45600Y14494D02*
X-45593Y14488D01*
X-45600Y14494D02*
Y21300D01*
X-53496Y12108D02*
X-51808D01*
X-47200Y7500D02*
X-47100Y7400D01*
X-51808Y12108D02*
X-47200Y7500D01*
X-17780Y-1380D02*
Y0D01*
X-47100Y-1800D02*
Y4400D01*
X-53496Y-392D02*
X-52088Y-1800D01*
X-18200D02*
X-17780Y-1380D01*
D13*
X-57600Y3400D02*
Y14800D01*
X-54640Y17760D02*
Y21300D01*
X-57600Y14800D02*
X-54640Y17760D01*
X-65996Y-392D02*
X-61392D01*
X-57600Y3400D01*
X-64800Y13304D02*
Y21400D01*
X-65996Y12108D02*
X-64800Y13304D01*
D14*
Y21300D02*
D03*
X-45600D02*
D03*
D15*
X-59720D02*
D03*
X-54640D02*
D03*
X-30360D02*
D03*
X-40520D02*
D03*
X-35440D02*
D03*
X-53496Y-392D02*
D03*
X-65996D02*
D03*
Y12108D02*
D03*
X-52196Y5808D02*
D03*
X-53496Y12108D02*
D03*
D16*
X0Y0D02*
D03*
X-15300Y20540D02*
D03*
D17*
X0Y2540D02*
D03*
X-2540Y0D02*
D03*
Y2540D02*
D03*
X-5080Y0D02*
D03*
X-5080Y2540D02*
D03*
X-7620Y0D02*
D03*
Y2540D02*
D03*
X-10160Y0D02*
D03*
Y2540D02*
D03*
X-12700Y0D02*
D03*
Y2540D02*
D03*
X-15240Y0D02*
D03*
Y2540D02*
D03*
X-17780Y0D02*
D03*
Y2540D02*
D03*
X-20320Y0D02*
D03*
Y2540D02*
D03*
X-22860Y0D02*
D03*
Y2540D02*
D03*
X-25400Y0D02*
D03*
Y2540D02*
D03*
X-27940Y0D02*
D03*
X-27940Y2540D02*
D03*
X-30480Y0D02*
D03*
Y2540D02*
D03*
X-33020Y0D02*
D03*
Y2540D02*
D03*
X-35560Y0D02*
D03*
Y2540D02*
D03*
X-38100Y0D02*
D03*
Y2540D02*
D03*
X-40640Y0D02*
D03*
X-40640Y2540D02*
D03*
X-60Y23080D02*
D03*
Y20540D02*
D03*
X-2600Y23080D02*
D03*
Y20540D02*
D03*
X-5140Y23080D02*
D03*
Y20540D02*
D03*
X-7680Y23080D02*
D03*
Y20540D02*
D03*
X-10220Y23080D02*
D03*
X-10220Y20540D02*
D03*
X-12760Y23080D02*
D03*
Y20540D02*
D03*
X-15300Y23080D02*
D03*
D18*
X-35500Y9700D02*
D03*
X-45700D02*
D03*
X-28900D02*
D03*
X-14800D02*
D03*
M02*
