%FSLAX43Y43*%
%MOMM*%
G71*
G01*
G75*
%ADD10R,1.800X1.600*%
%ADD11C,0.500*%
%ADD12C,1.000*%
%ADD13C,2.000*%
%ADD14R,3.000X3.000*%
%ADD15C,3.000*%
%ADD16R,1.500X1.500*%
%ADD17C,1.500*%
%ADD18C,1.270*%
%ADD19C,0.400*%
%ADD20R,2.003X1.803*%
%ADD21R,3.203X3.203*%
%ADD22C,3.203*%
%ADD23R,1.703X1.703*%
%ADD24C,1.703*%
%ADD25C,1.473*%
D21*
X-64800Y21300D02*
D03*
X-45600D02*
D03*
D22*
X-59720D02*
D03*
X-54640D02*
D03*
X-30360D02*
D03*
X-40520D02*
D03*
X-35440D02*
D03*
X-53496Y-392D02*
D03*
X-65996D02*
D03*
Y12108D02*
D03*
X-52196Y5808D02*
D03*
X-53496Y12108D02*
D03*
D23*
X0Y0D02*
D03*
X-15300Y20540D02*
D03*
D24*
X0Y2540D02*
D03*
X-2540Y0D02*
D03*
Y2540D02*
D03*
X-5080Y0D02*
D03*
X-5080Y2540D02*
D03*
X-7620Y0D02*
D03*
Y2540D02*
D03*
X-10160Y0D02*
D03*
Y2540D02*
D03*
X-12700Y0D02*
D03*
Y2540D02*
D03*
X-15240Y0D02*
D03*
Y2540D02*
D03*
X-17780Y0D02*
D03*
Y2540D02*
D03*
X-20320Y0D02*
D03*
Y2540D02*
D03*
X-22860Y0D02*
D03*
Y2540D02*
D03*
X-25400Y0D02*
D03*
Y2540D02*
D03*
X-27940Y0D02*
D03*
X-27940Y2540D02*
D03*
X-30480Y0D02*
D03*
Y2540D02*
D03*
X-33020Y0D02*
D03*
Y2540D02*
D03*
X-35560Y0D02*
D03*
Y2540D02*
D03*
X-38100Y0D02*
D03*
Y2540D02*
D03*
X-40640Y0D02*
D03*
X-40640Y2540D02*
D03*
X-60Y23080D02*
D03*
Y20540D02*
D03*
X-2600Y23080D02*
D03*
Y20540D02*
D03*
X-5140Y23080D02*
D03*
Y20540D02*
D03*
X-7680Y23080D02*
D03*
Y20540D02*
D03*
X-10220Y23080D02*
D03*
X-10220Y20540D02*
D03*
X-12760Y23080D02*
D03*
Y20540D02*
D03*
X-15300Y23080D02*
D03*
D25*
X-35500Y9700D02*
D03*
X-45700D02*
D03*
X-28900D02*
D03*
X-14800D02*
D03*
M02*
