%FSLAX43Y43*%
%MOMM*%
G71*
G01*
G75*
%ADD10R,1.800X1.600*%
%ADD11C,1.000*%
%ADD12C,2.000*%
%ADD13C,0.500*%
%ADD14C,3.000*%
%ADD15R,3.000X3.000*%
%ADD16R,1.500X1.500*%
%ADD17C,1.500*%
%ADD18C,1.270*%
%ADD19C,0.400*%
%ADD20R,2.003X1.803*%
%ADD21C,3.203*%
%ADD22R,3.203X3.203*%
%ADD23R,1.703X1.703*%
%ADD24C,1.703*%
%ADD25C,1.473*%
D20*
X-30393Y14488D02*
D03*
Y11688D02*
D03*
X-35493Y14488D02*
D03*
Y11688D02*
D03*
X-40493Y14488D02*
D03*
Y11688D02*
D03*
X-45593Y14488D02*
D03*
Y11688D02*
D03*
X-47091Y4495D02*
D03*
Y7295D02*
D03*
D21*
X-49560Y21400D02*
D03*
X-59720D02*
D03*
X-54640D02*
D03*
X-34360D02*
D03*
X-44520D02*
D03*
X-39440D02*
D03*
X-53496Y12108D02*
D03*
X-52196Y5808D02*
D03*
X-65996Y12108D02*
D03*
Y-392D02*
D03*
X-53496D02*
D03*
D22*
X-64800Y21400D02*
D03*
D23*
X-15300Y20540D02*
D03*
X0Y0D02*
D03*
D24*
X-15300Y23080D02*
D03*
X-12760Y20540D02*
D03*
Y23080D02*
D03*
X-10220Y20540D02*
D03*
X-10220Y23080D02*
D03*
X-7680Y20540D02*
D03*
Y23080D02*
D03*
X-5140Y20540D02*
D03*
Y23080D02*
D03*
X-2600Y20540D02*
D03*
Y23080D02*
D03*
X-60Y20540D02*
D03*
Y23080D02*
D03*
X-40640Y2540D02*
D03*
X-40640Y0D02*
D03*
X-38100Y2540D02*
D03*
Y0D02*
D03*
X-35560Y2540D02*
D03*
Y0D02*
D03*
X-33020Y2540D02*
D03*
Y0D02*
D03*
X-30480Y2540D02*
D03*
Y0D02*
D03*
X-27940Y2540D02*
D03*
X-27940Y0D02*
D03*
X-25400Y2540D02*
D03*
Y0D02*
D03*
X-22860Y2540D02*
D03*
Y0D02*
D03*
X-20320Y2540D02*
D03*
Y0D02*
D03*
X-17780Y2540D02*
D03*
Y0D02*
D03*
X-15240Y2540D02*
D03*
Y0D02*
D03*
X-12700Y2540D02*
D03*
Y0D02*
D03*
X-10160Y2540D02*
D03*
Y0D02*
D03*
X-7620Y2540D02*
D03*
Y0D02*
D03*
X-5080Y2540D02*
D03*
X-5080Y0D02*
D03*
X-2540Y2540D02*
D03*
Y0D02*
D03*
X0Y2540D02*
D03*
D25*
X-14800Y9700D02*
D03*
X-28900D02*
D03*
X-45700D02*
D03*
X-35500D02*
D03*
M02*
