%FSLAX43Y43*%
%MOMM*%
G71*
G01*
G75*
G04 Layer_Physical_Order=2*
%ADD10R,1.800X1.600*%
%ADD11C,1.000*%
%ADD12C,2.000*%
%ADD13C,0.500*%
%ADD14C,3.000*%
%ADD15R,3.000X3.000*%
%ADD16R,1.500X1.500*%
%ADD17C,1.500*%
%ADD18C,1.270*%
%ADD19C,0.400*%
D11*
X-17780Y0D02*
Y20D01*
X-15240Y2540D02*
X-15000Y2780D01*
X-8900Y16700D02*
Y19600D01*
X-10400Y17300D02*
Y20360D01*
X-15000Y10600D02*
X-8900Y16700D01*
X-10400Y20360D02*
X-10220Y20540D01*
X-17800Y0D02*
X-16500Y1300D01*
Y3400D02*
Y11200D01*
X-10400Y17300D01*
X-15000Y9700D02*
X-14800D01*
X-8900Y21860D02*
X-7680Y23080D01*
X-15000Y2780D02*
Y10600D01*
D12*
X-59700Y9600D02*
X-55908Y5808D01*
X-59700Y9600D02*
Y21200D01*
X-55908Y5808D02*
X-52196D01*
D13*
X-45700Y9700D02*
X-28900D01*
D14*
X-49560Y21400D02*
D03*
X-59720D02*
D03*
X-54640D02*
D03*
X-34360D02*
D03*
X-44520D02*
D03*
X-39440D02*
D03*
X-53496Y12108D02*
D03*
X-52196Y5808D02*
D03*
X-65996Y12108D02*
D03*
Y-392D02*
D03*
X-53496D02*
D03*
D15*
X-64800Y21400D02*
D03*
D16*
X-15300Y20540D02*
D03*
X0Y0D02*
D03*
D17*
X-15300Y23080D02*
D03*
X-12760Y20540D02*
D03*
Y23080D02*
D03*
X-10220Y20540D02*
D03*
X-10220Y23080D02*
D03*
X-7680Y20540D02*
D03*
Y23080D02*
D03*
X-5140Y20540D02*
D03*
Y23080D02*
D03*
X-2600Y20540D02*
D03*
Y23080D02*
D03*
X-60Y20540D02*
D03*
Y23080D02*
D03*
X-40640Y2540D02*
D03*
X-40640Y0D02*
D03*
X-38100Y2540D02*
D03*
Y0D02*
D03*
X-35560Y2540D02*
D03*
Y0D02*
D03*
X-33020Y2540D02*
D03*
Y0D02*
D03*
X-30480Y2540D02*
D03*
Y0D02*
D03*
X-27940Y2540D02*
D03*
X-27940Y0D02*
D03*
X-25400Y2540D02*
D03*
Y0D02*
D03*
X-22860Y2540D02*
D03*
Y0D02*
D03*
X-20320Y2540D02*
D03*
Y0D02*
D03*
X-17780Y2540D02*
D03*
Y0D02*
D03*
X-15240Y2540D02*
D03*
Y0D02*
D03*
X-12700Y2540D02*
D03*
Y0D02*
D03*
X-10160Y2540D02*
D03*
Y0D02*
D03*
X-7620Y2540D02*
D03*
Y0D02*
D03*
X-5080Y2540D02*
D03*
X-5080Y0D02*
D03*
X-2540Y2540D02*
D03*
Y0D02*
D03*
X0Y2540D02*
D03*
D18*
X-14800Y9700D02*
D03*
X-28900D02*
D03*
X-45700D02*
D03*
X-35500D02*
D03*
D19*
X2100Y-1200D02*
Y20920D01*
X1000Y-2300D02*
X2100Y-1200D01*
X-1700Y-2300D02*
X1000D01*
X-2540Y-1460D02*
X-1700Y-2300D01*
X-2540Y-1460D02*
Y0D01*
X-60Y23080D02*
X2100Y20920D01*
X-7620Y0D02*
X-6300Y1320D01*
X-60Y16740D02*
Y20540D01*
X-1300Y16900D02*
Y21780D01*
X-2600Y23080D02*
X-1300Y21780D01*
X-7600Y2500D02*
X-7500Y2600D01*
X-10160Y0D02*
X-8900Y1260D01*
X-2600Y17100D02*
Y20540D01*
X-12700Y0D02*
X-11400Y1300D01*
X-5140Y16060D02*
Y20540D01*
X-7500Y2600D02*
Y10700D01*
X-6400Y21820D02*
X-5140Y23080D01*
X-11400Y1300D02*
Y9800D01*
X-12700Y2540D02*
Y10000D01*
X-20400Y0D02*
X-20320D01*
X-19100Y1220D01*
X-14000Y21840D02*
X-12760Y23080D01*
X-29200Y1300D02*
Y5600D01*
X-15300Y19500D02*
Y20540D01*
X-30500Y0D02*
X-29200Y1300D01*
X-17500Y21500D02*
X-15920Y23080D01*
X-15300D01*
Y23100D01*
X-30480Y2540D02*
Y5820D01*
X-17800Y0D02*
X-17790Y10D01*
X-20400Y2500D02*
Y12300D01*
X-17500Y18800D02*
Y21500D01*
X-30480Y5820D02*
X-17500Y18800D01*
X-29200Y5600D02*
X-15300Y19500D01*
X-14000Y18700D02*
Y21840D01*
X-16500Y1300D02*
Y3400D01*
X-6400Y16300D02*
Y21820D01*
X-8900Y19600D02*
Y21860D01*
X-20400Y12300D02*
X-14000Y18700D01*
Y1240D02*
Y3300D01*
X-13600Y3700D02*
Y10300D01*
X-8900Y1260D02*
Y10800D01*
X-6300Y1320D02*
Y10500D01*
X-7500Y10700D02*
X-1300Y16900D01*
X-6300Y10500D02*
X-60Y16740D01*
X-8900Y10800D02*
X-2600Y17100D01*
X-12700Y10000D02*
X-6400Y16300D01*
X-11400Y9800D02*
X-5140Y16060D01*
X-13600Y10300D02*
X-7700Y16200D01*
X-15240Y0D02*
X-14000Y1240D01*
Y3300D02*
X-13600Y3700D01*
X-7680Y20500D02*
Y20540D01*
X-7700Y16200D02*
Y20500D01*
X-12760Y18240D02*
Y20540D01*
X-19100Y1220D02*
Y11900D01*
X-12760Y18240D01*
X-18100Y2860D02*
Y11500D01*
Y2860D02*
X-17780Y2540D01*
X-18100Y11500D02*
X-11500Y18100D01*
Y21800D02*
X-10220Y23080D01*
X-11500Y18100D02*
Y21800D01*
M02*
