METRIC,LZ
M48
T1F00S00C0.711
T2F00S00C1.000
T3F00S00C1.500
%
T01
X-00148Y00097
X-00289
X-00355
X-00457
T02
X0Y0
X-000254
Y000254
X-000508
X-000762
X-001016
Y0
X-000762
X-000508
X0Y000254
X-000006Y002054
X-00026
X-000514
X-000768
X-001022
X-001022Y002308
X-000768
X-000514
X-00026
X-000006
X-001276
X-00153
Y002054
X-001276
X-00127Y000254
X-001524
X-001778
X-002032
X-002286
X-00254
X-002794
X-003048
X-003302
X-003556
X-00381
X-004064
X-004064Y0
X-00381
X-003556
X-003302
X-003048
X-002794
X-00254
X-002286
X-002032
X-001778
X-001524
X-00127
T03
X-003436Y00214
X-003944
X-004452
X-004956
X-005464
X-005972
X-00648
X-0065996Y0012108
X-0053496Y0012108
X-0052196Y0005808
X-0053496Y-0000392
X-0065996
M30
